<svg width="32" height="32" viewBox="0 0 32 32" xmlns="http://www.w3.org/2000/svg">
  <defs>
    <linearGradient id="bgGradient" x1="0%" y1="0%" x2="100%" y2="100%">
      <stop offset="0%" style="stop-color:#2E7D32;stop-opacity:1" />
      <stop offset="100%" style="stop-color:#1B5E20;stop-opacity:1" />
    </linearGradient>
    <linearGradient id="leafGradient" x1="0%" y1="0%" x2="100%" y2="100%">
      <stop offset="0%" style="stop-color:#4CAF50;stop-opacity:1" />
      <stop offset="100%" style="stop-color:#2E7D32;stop-opacity:1" />
    </linearGradient>
  </defs>
  
  <!-- Background circle -->
  <circle cx="16" cy="16" r="15" fill="url(#bgGradient)" stroke="#1B5E20" stroke-width="1"/>
  
  <!-- Agricultural plant design -->
  <g transform="translate(16,16)">
    <!-- Main stem -->
    <rect x="-0.5" y="-8" width="1" height="16" fill="#8D6E63" rx="0.5"/>
    
    <!-- Left leaves -->
    <ellipse cx="-4" cy="-5" rx="3" ry="1.5" fill="url(#leafGradient)" transform="rotate(-30 -4 -5)"/>
    <ellipse cx="-5" cy="-2" rx="3.5" ry="2" fill="url(#leafGradient)" transform="rotate(-45 -5 -2)"/>
    <ellipse cx="-4" cy="1" rx="3" ry="1.5" fill="url(#leafGradient)" transform="rotate(-35 -4 1)"/>
    <ellipse cx="-3" cy="4" rx="2.5" ry="1.2" fill="url(#leafGradient)" transform="rotate(-25 -3 4)"/>
    
    <!-- Right leaves -->
    <ellipse cx="4" cy="-5" rx="3" ry="1.5" fill="url(#leafGradient)" transform="rotate(30 4 -5)"/>
    <ellipse cx="5" cy="-2" rx="3.5" ry="2" fill="url(#leafGradient)" transform="rotate(45 5 -2)"/>
    <ellipse cx="4" cy="1" rx="3" ry="1.5" fill="url(#leafGradient)" transform="rotate(35 4 1)"/>
    <ellipse cx="3" cy="4" rx="2.5" ry="1.2" fill="url(#leafGradient)" transform="rotate(25 3 4)"/>
    
    <!-- Technology elements - IoT sensors -->
    <circle cx="-6" cy="-4" r="1" fill="#FFC107" stroke="#FF8F00" stroke-width="0.3"/>
    <circle cx="6" cy="-4" r="1" fill="#FFC107" stroke="#FF8F00" stroke-width="0.3"/>
    <circle cx="-7" cy="2" r="0.8" fill="#FFC107" stroke="#FF8F00" stroke-width="0.3"/>
    <circle cx="7" cy="2" r="0.8" fill="#FFC107" stroke="#FF8F00" stroke-width="0.3"/>
    
    <!-- Connection lines (IoT network) -->
    <line x1="-6" y1="-4" x2="0" y2="-7" stroke="#FFC107" stroke-width="0.3" opacity="0.7"/>
    <line x1="6" y1="-4" x2="0" y2="-7" stroke="#FFC107" stroke-width="0.3" opacity="0.7"/>
    <line x1="-7" y1="2" x2="0" y2="5" stroke="#FFC107" stroke-width="0.3" opacity="0.7"/>
    <line x1="7" y1="2" x2="0" y2="5" stroke="#FFC107" stroke-width="0.3" opacity="0.7"/>
    
    <!-- Central data hub -->
    <circle cx="0" cy="-7" r="1.2" fill="#FF8F00" stroke="#FF6F00" stroke-width="0.3"/>
    <circle cx="0" cy="5" r="1" fill="#FF8F00" stroke="#FF6F00" stroke-width="0.3"/>
  </g>
</svg>